<svg xmlns="http://www.w3.org/2000/svg" version="1.1" xmlns:xlink="http://www.w3.org/1999/xlink" xmlns:svgjs="http://svgjs.dev/svgjs" width="1000" height="601" viewBox="0 0 1000 601"><g transform="matrix(1,0,0,1,-0.6060606060606233,0.5738742046598873)"><svg viewBox="0 0 396 238" data-background-color="#000000" preserveAspectRatio="xMidYMid meet" height="601" width="1000" xmlns="http://www.w3.org/2000/svg" xmlns:xlink="http://www.w3.org/1999/xlink"><g id="tight-bounds" transform="matrix(1,0,0,1,0.2400000000000091,-0.2272580045075756)"><svg viewBox="0 0 395.52 238.45451600901515" height="238.45451600901515" width="395.52"><g><svg viewBox="0 0 395.52 238.45451600901515" height="238.45451600901515" width="395.52"><g transform="matrix(1,0,0,1,0,147.3744572143067)"><svg viewBox="0 0 395.52 91.08005879470846" height="91.08005879470846" width="395.52"><g id="textblocktransform"><svg viewBox="0 0 395.52 91.08005879470846" height="91.08005879470846" width="395.52" id="textblock"><g><svg viewBox="0 0 395.52 91.08005879470846" height="91.08005879470846" width="395.52"><g transform="matrix(1,0,0,1,0,0)"><svg width="395.52" viewBox="3.95 -37 204.08 47" height="91.08005879470846" data-palette-color="url(#32094efc-ca29-43e2-9abc-be267bebe1b1)"></svg></g></svg></g></svg></g></svg></g><g transform="matrix(1,0,0,1,112.0912240634983,0)"><svg viewBox="0 0 171.33755187300338 125.8726412542871" height="125.8726412542871" width="171.33755187300338"><g><svg xmlns="http://www.w3.org/2000/svg" xmlns:xlink="http://www.w3.org/1999/xlink" version="1.1" x="8" y="0" viewBox="22.330999999999996 25.169 58.002 47.000000000000014" enable-background="new 0 0 100 100" xml:space="preserve" height="125.8726412542871" width="155.33755187300338" class="icon-icon-0" data-fill-palette-color="accent" id="icon-0"></svg></g></svg></g><g></g></svg></g><defs></defs><mask id="d85dbb72-667d-4c7b-a95d-cf5417c96c6d"><g id="SvgjsG1010"><svg viewBox="0 0 395.52 238.45451600901515" height="238.45451600901515" width="395.52"><g><svg viewBox="0 0 395.52 238.45451600901515" height="238.45451600901515" width="395.52"><g transform="matrix(1,0,0,1,0,147.3744572143067)"><svg viewBox="0 0 395.52 91.08005879470846" height="91.08005879470846" width="395.52"><g id="SvgjsG1009"><svg viewBox="0 0 395.52 91.08005879470846" height="91.08005879470846" width="395.52" id="SvgjsSvg1008"><g><svg viewBox="0 0 395.52 91.08005879470846" height="91.08005879470846" width="395.52"><g transform="matrix(1,0,0,1,0,0)"><svg width="395.52" viewBox="3.95 -37 204.08 47" height="91.08005879470846" data-palette-color="url(#32094efc-ca29-43e2-9abc-be267bebe1b1)"><path d="M16.1-25.75L16.1-25.75Q19.5-25.75 22.13-24.08 24.75-22.4 26.3-19.48 27.85-16.55 27.85-12.75L27.85-12.75Q27.85-8.95 26.3-6 24.75-3.05 22.1-1.35 19.45 0.35 16.15 0.35L16.15 0.35Q14.4 0.35 12.83-0.18 11.25-0.7 9.95-1.6 8.65-2.5 7.65-3.73 6.65-4.95 6.05-6.4L6.05-6.4 6.95-7.05 6.95 8.5Q6.95 9.1 6.53 9.55 6.1 10 5.45 10L5.45 10Q4.8 10 4.38 9.55 3.95 9.1 3.95 8.5L3.95 8.5 3.95-24.1Q3.95-24.75 4.35-25.2 4.75-25.65 5.45-25.65L5.45-25.65Q6.1-25.65 6.53-25.2 6.95-24.75 6.95-24.1L6.95-24.1 6.95-18.7 6.25-19.1Q6.75-20.65 7.73-21.88 8.7-23.1 10-23.98 11.3-24.85 12.85-25.3 14.4-25.75 16.1-25.75ZM15.85-22.95L15.85-22.95Q13.15-22.95 11.1-21.63 9.05-20.3 7.88-18.03 6.7-15.75 6.7-12.75L6.7-12.75Q6.7-9.8 7.88-7.45 9.05-5.1 11.1-3.78 13.15-2.45 15.85-2.45L15.85-2.45Q18.5-2.45 20.53-3.78 22.55-5.1 23.75-7.45 24.95-9.8 24.95-12.75L24.95-12.75Q24.95-15.7 23.75-18 22.55-20.3 20.53-21.63 18.5-22.95 15.85-22.95ZM45.4 0.5L45.4 0.5Q41.55 0.5 38.6-1.15 35.65-2.8 34-5.75 32.35-8.7 32.35-12.65L32.35-12.65Q32.35-16.9 34.02-19.9 35.7-22.9 38.37-24.53 41.05-26.15 44.05-26.15L44.05-26.15Q46.25-26.15 48.32-25.38 50.4-24.6 52-23.08 53.6-21.55 54.6-19.35 55.6-17.15 55.65-14.25L55.65-14.25Q55.65-13.65 55.2-13.23 54.75-12.8 54.15-12.8L54.15-12.8 34.1-12.8 33.5-15.5 53.2-15.5 52.55-14.9 52.55-15.9Q52.3-18.25 51-19.9 49.7-21.55 47.87-22.4 46.05-23.25 44.05-23.25L44.05-23.25Q42.55-23.25 40.97-22.65 39.4-22.05 38.12-20.78 36.85-19.5 36.05-17.53 35.25-15.55 35.25-12.85L35.25-12.85Q35.25-9.9 36.45-7.5 37.65-5.1 39.9-3.7 42.15-2.3 45.35-2.3L45.35-2.3Q47.05-2.3 48.45-2.8 49.85-3.3 50.92-4.13 52-4.95 52.7-5.85L52.7-5.85Q53.25-6.3 53.75-6.3L53.75-6.3Q54.3-6.3 54.67-5.9 55.05-5.5 55.05-5L55.05-5Q55.05-4.4 54.55-3.95L54.55-3.95Q53.05-2.15 50.65-0.83 48.25 0.5 45.4 0.5ZM73.2 0.5L73.2 0.5Q69.34 0.5 66.4-1.15 63.45-2.8 61.8-5.75 60.15-8.7 60.15-12.65L60.15-12.65Q60.15-16.9 61.82-19.9 63.5-22.9 66.17-24.53 68.84-26.15 71.84-26.15L71.84-26.15Q74.05-26.15 76.12-25.38 78.2-24.6 79.8-23.08 81.4-21.55 82.4-19.35 83.4-17.15 83.45-14.25L83.45-14.25Q83.45-13.65 83-13.23 82.55-12.8 81.95-12.8L81.95-12.8 61.9-12.8 61.3-15.5 81-15.5 80.34-14.9 80.34-15.9Q80.09-18.25 78.8-19.9 77.5-21.55 75.67-22.4 73.84-23.25 71.84-23.25L71.84-23.25Q70.34-23.25 68.77-22.65 67.2-22.05 65.92-20.78 64.65-19.5 63.85-17.53 63.05-15.55 63.05-12.85L63.05-12.85Q63.05-9.9 64.25-7.5 65.45-5.1 67.7-3.7 69.95-2.3 73.15-2.3L73.15-2.3Q74.84-2.3 76.25-2.8 77.65-3.3 78.72-4.13 79.8-4.95 80.5-5.85L80.5-5.85Q81.05-6.3 81.55-6.3L81.55-6.3Q82.09-6.3 82.47-5.9 82.84-5.5 82.84-5L82.84-5Q82.84-4.4 82.34-3.95L82.34-3.95Q80.84-2.15 78.45-0.83 76.05 0.5 73.2 0.5ZM91.44 0L91.44 0Q90.79 0 90.37-0.45 89.94-0.9 89.94-1.5L89.94-1.5 89.94-35.5Q89.94-36.1 90.37-36.55 90.79-37 91.44-37L91.44-37Q92.09-37 92.52-36.55 92.94-36.1 92.94-35.5L92.94-35.5 92.94-1.5Q92.94-0.9 92.52-0.45 92.09 0 91.44 0ZM108.44-25.65L108.44-25.65Q108.99-25.65 109.44-25.18 109.89-24.7 109.89-24.15L109.89-24.15Q109.89-23.5 109.34-23L109.34-23 92.54-8.7 92.39-12.25 107.39-25.15Q107.84-25.65 108.44-25.65ZM108.84 0L108.84 0Q108.19 0 107.74-0.55L107.74-0.55 96.34-12.65 98.59-14.7 109.89-2.65Q110.34-2.15 110.34-1.5L110.34-1.5Q110.34-0.8 109.79-0.4 109.24 0 108.84 0ZM128.54-25.75L128.54-25.75Q131.94-25.75 134.56-24.08 137.19-22.4 138.74-19.48 140.29-16.55 140.29-12.75L140.29-12.75Q140.29-8.95 138.74-6 137.19-3.05 134.54-1.35 131.89 0.35 128.59 0.35L128.59 0.35Q126.84 0.35 125.27-0.18 123.69-0.7 122.39-1.6 121.09-2.5 120.09-3.73 119.09-4.95 118.49-6.4L118.49-6.4 119.39-7.05 119.39 8.5Q119.39 9.1 118.97 9.55 118.54 10 117.89 10L117.89 10Q117.24 10 116.82 9.55 116.39 9.1 116.39 8.5L116.39 8.5 116.39-24.1Q116.39-24.75 116.79-25.2 117.19-25.65 117.89-25.65L117.89-25.65Q118.54-25.65 118.97-25.2 119.39-24.75 119.39-24.1L119.39-24.1 119.39-18.7 118.69-19.1Q119.19-20.65 120.17-21.88 121.14-23.1 122.44-23.98 123.74-24.85 125.29-25.3 126.84-25.75 128.54-25.75ZM128.29-22.95L128.29-22.95Q125.59-22.95 123.54-21.63 121.49-20.3 120.32-18.03 119.14-15.75 119.14-12.75L119.14-12.75Q119.14-9.8 120.32-7.45 121.49-5.1 123.54-3.78 125.59-2.45 128.29-2.45L128.29-2.45Q130.94-2.45 132.97-3.78 134.99-5.1 136.19-7.45 137.39-9.8 137.39-12.75L137.39-12.75Q137.39-15.7 136.19-18 134.99-20.3 132.97-21.63 130.94-22.95 128.29-22.95ZM149.79-35.5L149.79-1.5Q149.79-0.9 149.34-0.45 148.89 0 148.29 0L148.29 0Q147.64 0 147.21-0.45 146.79-0.9 146.79-1.5L146.79-1.5 146.79-35.5Q146.79-36.1 147.24-36.55 147.69-37 148.29-37L148.29-37Q148.94-37 149.36-36.55 149.79-36.1 149.79-35.5L149.79-35.5ZM178.74-25.55L178.74-25.55Q179.39-25.55 179.81-25.1 180.24-24.65 180.24-24L180.24-24 180.24-1.5Q180.24-0.9 179.79-0.45 179.34 0 178.74 0L178.74 0Q178.04 0 177.64-0.45 177.24-0.9 177.24-1.5L177.24-1.5 177.24-7.45 178.09-7.85Q178.09-6.45 177.31-5 176.54-3.55 175.19-2.3 173.84-1.05 172.01-0.28 170.19 0.5 168.04 0.5L168.04 0.5Q164.69 0.5 162.01-1.25 159.34-3 157.81-6.05 156.29-9.1 156.29-12.9L156.29-12.9Q156.29-16.8 157.84-19.78 159.39-22.75 162.04-24.45 164.69-26.15 167.99-26.15L167.99-26.15Q170.14-26.15 172.01-25.4 173.89-24.65 175.29-23.35 176.69-22.05 177.49-20.38 178.29-18.7 178.29-16.9L178.29-16.9 177.24-17.65 177.24-24Q177.24-24.65 177.64-25.1 178.04-25.55 178.74-25.55ZM168.34-2.3L168.34-2.3Q170.99-2.3 173.04-3.68 175.09-5.05 176.26-7.48 177.44-9.9 177.44-12.9L177.44-12.9Q177.44-15.85 176.26-18.2 175.09-20.55 173.04-21.95 170.99-23.35 168.34-23.35L168.34-23.35Q165.74-23.35 163.66-22 161.59-20.65 160.41-18.3 159.24-15.95 159.24-12.9L159.24-12.9Q159.24-9.9 160.39-7.48 161.54-5.05 163.61-3.68 165.69-2.3 168.34-2.3ZM206.53-26L206.53-26Q207.18-26 207.61-25.55 208.03-25.1 208.03-24.5L208.03-24.5 208.03-2.45Q208.03 1.6 206.43 4.38 204.83 7.15 202.13 8.58 199.43 10 195.98 10L195.98 10Q193.83 10 192.01 9.53 190.18 9.05 189.03 8.3L189.03 8.3Q188.43 7.95 188.13 7.45 187.83 6.95 188.08 6.4L188.08 6.4Q188.33 5.7 188.86 5.48 189.38 5.25 189.93 5.5L189.93 5.5Q190.78 5.95 192.38 6.6 193.98 7.25 196.03 7.25L196.03 7.25Q198.78 7.25 200.81 6.1 202.83 4.95 203.93 2.78 205.03 0.6 205.03-2.4L205.03-2.4 205.03-6 205.38-4.8Q204.63-3.25 203.26-2.05 201.88-0.85 200.11-0.18 198.33 0.5 196.33 0.5L196.33 0.5Q193.33 0.5 191.36-0.73 189.38-1.95 188.43-4.1 187.48-6.25 187.48-9.15L187.48-9.15 187.48-24.5Q187.48-25.1 187.88-25.55 188.28-26 188.98-26L188.98-26Q189.63-26 190.06-25.55 190.48-25.1 190.48-24.5L190.48-24.5 190.48-9.6Q190.48-6.1 192.01-4.2 193.53-2.3 196.98-2.3L196.98-2.3Q199.13-2.3 200.93-3.33 202.73-4.35 203.88-6.03 205.03-7.7 205.03-9.6L205.03-9.6 205.03-24.5Q205.03-25.1 205.46-25.55 205.88-26 206.53-26Z" opacity="1" transform="matrix(1,0,0,1,0,0)" fill="white" class="wordmark-text-0" id="SvgjsPath1007"></path></svg></g></svg></g></svg></g></svg></g><g transform="matrix(1,0,0,1,112.0912240634983,0)"><svg viewBox="0 0 171.33755187300338 125.8726412542871" height="125.8726412542871" width="171.33755187300338"><g><svg xmlns="http://www.w3.org/2000/svg" xmlns:xlink="http://www.w3.org/1999/xlink" version="1.1" x="8" y="0" viewBox="22.330999999999996 25.169 58.002 47.000000000000014" enable-background="new 0 0 100 100" xml:space="preserve" height="125.8726412542871" width="155.33755187300338" class="icon-icon-0" data-fill-palette-color="accent" id="SvgjsSvg1006"></svg></g></svg></g><g></g></svg></g><defs><mask></mask></defs></svg></g></mask><linearGradient x1="0" x2="1" y1="0.578" y2="0.595" id="32094efc-ca29-43e2-9abc-be267bebe1b1"><stop stop-color="#6ee2f5" offset="0"></stop><stop stop-color="#6454f0" offset="1"></stop></linearGradient><rect width="395.52" height="238.45451600901515" fill="url(#32094efc-ca29-43e2-9abc-be267bebe1b1)" mask="url(#d85dbb72-667d-4c7b-a95d-cf5417c96c6d)" data-fill-palette-color="primary"></rect><mask id="9bbcd2b2-749f-4e5d-a54f-9c75d1c7d673"><g id="SvgjsG1019"><svg viewBox="0 0 395.52 238.45451600901515" height="238.45451600901515" width="395.52"><g><svg viewBox="0 0 395.52 238.45451600901515" height="238.45451600901515" width="395.52"><g transform="matrix(1,0,0,1,0,147.3744572143067)"><svg viewBox="0 0 395.52 91.08005879470846" height="91.08005879470846" width="395.52"><g id="SvgjsG1018"><svg viewBox="0 0 395.52 91.08005879470846" height="91.08005879470846" width="395.52" id="SvgjsSvg1017"><g><svg viewBox="0 0 395.52 91.08005879470846" height="91.08005879470846" width="395.52"><g transform="matrix(1,0,0,1,0,0)"><svg width="395.52" viewBox="3.95 -37 204.08 47" height="91.08005879470846" data-palette-color="url(#32094efc-ca29-43e2-9abc-be267bebe1b1)"></svg></g></svg></g></svg></g></svg></g><g transform="matrix(1,0,0,1,112.0912240634983,0)"><svg viewBox="0 0 171.33755187300338 125.8726412542871" height="125.8726412542871" width="171.33755187300338"><g><svg xmlns="http://www.w3.org/2000/svg" xmlns:xlink="http://www.w3.org/1999/xlink" version="1.1" x="8" y="0" viewBox="22.330999999999996 25.169 58.002 47.000000000000014" enable-background="new 0 0 100 100" xml:space="preserve" height="125.8726412542871" width="155.33755187300338" class="icon-icon-0" data-fill-palette-color="accent" id="SvgjsSvg1016"><path d="M65.083 25.169c-6.049 0-11.287 5.456-13.75 13.342-2.465-7.886-7.701-13.342-13.752-13.342-8.408 0-15.25 10.542-15.25 23.5s6.842 23.5 15.25 23.5c6.051 0 11.287-5.456 13.752-13.342 2.463 7.886 7.701 13.342 13.75 13.342 8.408 0 15.25-10.542 15.25-23.5S73.491 25.169 65.083 25.169zM37.581 69.169c-4.363 0-8.191-3.852-10.363-9.619 1.734 2.406 4.057 3.869 6.652 3.869 5.484 0 9.781-6.479 9.781-14.75s-4.297-14.75-9.781-14.75c-2.596 0-4.918 1.463-6.652 3.869 2.172-5.768 6-9.619 10.363-9.619 6.756 0 12.252 9.196 12.252 20.5S44.337 69.169 37.581 69.169zM65.083 69.169c-4.152 0-7.824-3.483-10.041-8.788 1.646 1.905 3.717 3.038 5.998 3.038 5.484 0 9.781-6.479 9.781-14.75s-4.297-14.75-9.781-14.75c-2.281 0-4.352 1.133-5.998 3.038 2.217-5.305 5.889-8.788 10.041-8.788 6.754 0 12.25 9.196 12.25 20.5S71.837 69.169 65.083 69.169z" fill="white"></path></svg></g></svg></g><g><rect width="112.0912240634983" height="8.213693696727486" y="116.65894755755963" x="283.42877593650167" fill="white"></rect><rect width="112.0912240634983" height="8.213693696727486" y="116.65894755755963" x="0" fill="white"></rect><rect width="112.0912240634983" height="8.213693696727486" y="100.23156016410465" x="283.42877593650167" fill="white"></rect><rect width="112.0912240634983" height="8.213693696727486" y="100.23156016410465" x="0" fill="white"></rect></g></svg></g><defs><mask></mask></defs><mask><g id="SvgjsG1015"><svg viewBox="0 0 395.52 238.45451600901515" height="238.45451600901515" width="395.52"><g><svg viewBox="0 0 395.52 238.45451600901515" height="238.45451600901515" width="395.52"><g transform="matrix(1,0,0,1,0,147.3744572143067)"><svg viewBox="0 0 395.52 91.08005879470846" height="91.08005879470846" width="395.52"><g id="SvgjsG1014"><svg viewBox="0 0 395.52 91.08005879470846" height="91.08005879470846" width="395.52" id="SvgjsSvg1013"><g><svg viewBox="0 0 395.52 91.08005879470846" height="91.08005879470846" width="395.52"><g transform="matrix(1,0,0,1,0,0)"><svg width="395.52" viewBox="3.95 -37 204.08 47" height="91.08005879470846" data-palette-color="url(#32094efc-ca29-43e2-9abc-be267bebe1b1)"></svg></g></svg></g></svg></g></svg></g><g transform="matrix(1,0,0,1,112.0912240634983,0)"><svg viewBox="0 0 171.33755187300338 125.8726412542871" height="125.8726412542871" width="171.33755187300338"><g><svg xmlns="http://www.w3.org/2000/svg" xmlns:xlink="http://www.w3.org/1999/xlink" version="1.1" x="8" y="0" viewBox="22.330999999999996 25.169 58.002 47.000000000000014" enable-background="new 0 0 100 100" xml:space="preserve" height="125.8726412542871" width="155.33755187300338" class="icon-icon-0" data-fill-palette-color="accent" id="SvgjsSvg1011"></svg></g></svg></g><g></g></svg></g><defs><mask></mask></defs></svg></g></mask></svg></g></mask><linearGradient x1="0.054" x2="0.941" y1="0.5" y2="0.5" id="b0fd8cfb-bb51-4858-a9cf-3f4089a67d0e"><stop stop-color="#0f3054" offset="0"></stop><stop stop-color="#3b8dcb" offset="0.498"></stop><stop stop-color="#0f3054" offset="1"></stop></linearGradient><rect width="395.52" height="238.45451600901515" fill="url(#b0fd8cfb-bb51-4858-a9cf-3f4089a67d0e)" mask="url(#9bbcd2b2-749f-4e5d-a54f-9c75d1c7d673)" data-fill-palette-color="accent"></rect></svg><rect width="395.52" height="238.45451600901515" fill="none" stroke="none" visibility="hidden"></rect></g></svg></g></svg>